# xmcd
#
# Track frame offsets:
#	150
#	15899
#	35424
#	57781
#	75253
#	96434
#	110105
#	126078
#	143755
#	162849
#	181860
#	195245
#	211635
#	228362
#
# Disc length: 3228 seconds
#
# Revision: 1
# Processed by: cddbd v1.5.2PL0 Copyright (c) Steve Scherf et al.
# Submitted via: EasyCDDAExtractor 10.0.1.1
#
DISCID=a30c9a0e
DTITLE=Various Artist - Damatinska Šansona 1
DYEAR=1900
DGENRE=
TTITLE0=Tedi Spalato i Klapa Teuta - Lipote gladan jubavi žedan
TTITLE1=Luky i Klapa Iskon - Nevera
TTITLE2=Massimo i Alkemicari - Gdje je ljubav
TTITLE3=Hari Roncevic - TAmo di mi sunce sja
TTITLE4=Neno Belan i Klapa More - Srce od leda
TTITLE5=Arsen Dedic - Nemojmo se rastajati
TTITLE6=Meri Cetinic - Kruh i sol
TTITLE7=Ðani Maršan - Suza za školu
TTITLE8=Radojka Šverko i Rivers - More i ti
TTITLE9=Artemija Jelaš - Nema mi dragog
TTITLE10=Klapa TEuta - Ne živi se od arije
TTITLE11=Šime Bubuica - Zaludu strpljenje
TTITLE12=Rivers - A nigdje vala
TTITLE13=Klapa Teuta - Ima mora u toj kuci
EXTD=
EXTT0=
EXTT1=
EXTT2=
EXTT3=
EXTT4=
EXTT5=
EXTT6=
EXTT7=
EXTT8=
EXTT9=
EXTT10=
EXTT11=
EXTT12=
EXTT13=
PLAYORDER=
